<mxfile host="app.diagrams.net" modified="2024-07-22T19:23:07.735Z" agent="Mozilla/5.0 (Windows NT 10.0; Win64; x64) AppleWebKit/537.36 (KHTML, like Gecko) Chrome/126.0.0.0 Safari/537.36" etag="AyMWd9SaO6TGHME3gp9o" version="24.7.3" type="device">
  <diagram id="N5CguMR-_nggTrKn1b_r" name="Page-1">
    <mxGraphModel dx="1050" dy="603" grid="1" gridSize="10" guides="1" tooltips="1" connect="1" arrows="1" fold="1" page="1" pageScale="1" pageWidth="827" pageHeight="1169" math="0" shadow="0">
      <root>
        <mxCell id="0" />
        <mxCell id="1" parent="0" />
        <mxCell id="QTx143XEM5j5_CtrWgsS-3" value="No" style="edgeStyle=orthogonalEdgeStyle;rounded=0;orthogonalLoop=1;jettySize=auto;html=1;" parent="1" source="QTx143XEM5j5_CtrWgsS-1" target="QTx143XEM5j5_CtrWgsS-2" edge="1">
          <mxGeometry relative="1" as="geometry" />
        </mxCell>
        <mxCell id="QTx143XEM5j5_CtrWgsS-5" value="" style="edgeStyle=orthogonalEdgeStyle;rounded=0;orthogonalLoop=1;jettySize=auto;html=1;" parent="1" source="QTx143XEM5j5_CtrWgsS-1" target="QTx143XEM5j5_CtrWgsS-4" edge="1">
          <mxGeometry relative="1" as="geometry" />
        </mxCell>
        <mxCell id="QTx143XEM5j5_CtrWgsS-12" value="Yes" style="edgeLabel;html=1;align=center;verticalAlign=middle;resizable=0;points=[];" parent="QTx143XEM5j5_CtrWgsS-5" vertex="1" connectable="0">
          <mxGeometry x="-0.2574" y="-1" relative="1" as="geometry">
            <mxPoint as="offset" />
          </mxGeometry>
        </mxCell>
        <mxCell id="QTx143XEM5j5_CtrWgsS-1" value="Is there a car in&lt;br&gt;the entrance" style="rhombus;whiteSpace=wrap;html=1;aspect=fixed;" parent="1" vertex="1">
          <mxGeometry x="356" y="210" width="116" height="116" as="geometry" />
        </mxCell>
        <mxCell id="QTx143XEM5j5_CtrWgsS-11" style="edgeStyle=orthogonalEdgeStyle;rounded=0;orthogonalLoop=1;jettySize=auto;html=1;entryX=0;entryY=0.5;entryDx=0;entryDy=0;" parent="1" source="QTx143XEM5j5_CtrWgsS-2" target="QTx143XEM5j5_CtrWgsS-1" edge="1">
          <mxGeometry relative="1" as="geometry">
            <mxPoint x="260" y="270" as="targetPoint" />
            <Array as="points">
              <mxPoint x="290" y="420" />
              <mxPoint x="290" y="268" />
            </Array>
          </mxGeometry>
        </mxCell>
        <mxCell id="QTx143XEM5j5_CtrWgsS-2" value="Show empty park spots counts and their numbers" style="whiteSpace=wrap;html=1;" parent="1" vertex="1">
          <mxGeometry x="354" y="390" width="120" height="60" as="geometry" />
        </mxCell>
        <mxCell id="QTx143XEM5j5_CtrWgsS-9" value="" style="edgeStyle=orthogonalEdgeStyle;rounded=0;orthogonalLoop=1;jettySize=auto;html=1;" parent="1" source="QTx143XEM5j5_CtrWgsS-4" target="QTx143XEM5j5_CtrWgsS-8" edge="1">
          <mxGeometry relative="1" as="geometry" />
        </mxCell>
        <mxCell id="QTx143XEM5j5_CtrWgsS-4" value="&lt;b&gt;Get the ID of the car&lt;/b&gt;&lt;div&gt;- generated by the system&lt;br&gt;- or by the user input through the app&lt;br&gt;- or car number plate&lt;/div&gt;" style="whiteSpace=wrap;html=1;aspect=fixed;" parent="1" vertex="1">
          <mxGeometry x="550" y="206.66" width="160" height="122.68" as="geometry" />
        </mxCell>
        <mxCell id="QTx143XEM5j5_CtrWgsS-10" style="edgeStyle=orthogonalEdgeStyle;rounded=0;orthogonalLoop=1;jettySize=auto;html=1;entryX=0.5;entryY=0;entryDx=0;entryDy=0;" parent="1" source="QTx143XEM5j5_CtrWgsS-8" target="QTx143XEM5j5_CtrWgsS-1" edge="1">
          <mxGeometry relative="1" as="geometry" />
        </mxCell>
        <mxCell id="QTx143XEM5j5_CtrWgsS-8" value="Wait for the car to park" style="whiteSpace=wrap;html=1;" parent="1" vertex="1">
          <mxGeometry x="570" y="100" width="120" height="60" as="geometry" />
        </mxCell>
      </root>
    </mxGraphModel>
  </diagram>
</mxfile>
